<svg xmlns="http://www.w3.org/2000/svg" fill="none" viewBox="0 0 90 90" stroke-width="4"><path stroke="#000000" stroke-linecap="round" stroke-linejoin="round" stroke-miterlimit="1.5" d="M20.2841 10.5758C6.45059 12.8395 7.86677 49.5616 8.20724 59.9447C8.58911 65.8182 10.0548 71.7016 14.3202 76.2292C17.9574 80.0911 23.6279 81.3191 28.7147 81.4631C41.117 81.8137 56.2174 81.8158 68.2622 78.767C86.314 74.197 81.6912 43.9432 80.2666 30.7138C79.6636 25.1095 78.2967 18.1954 74.6532 13.5572C71.4834 9.5228 65.9237 8.54265 61.1297 8.19833C50.8427 7.45893 30.4904 8.90572 20.2841 10.5758Z" clip-rule="evenodd"></path><path fill="#000000" fill-rule="evenodd" stroke="#000000" stroke-linecap="round" stroke-linejoin="round" stroke-miterlimit="1.5" d="M63.1999 20.7304C60.0454 20.7534 59.3985 25.4564 62.274 26.5784C65.6212 27.884 68.1338 21.517 63.1999 20.7304Z" clip-rule="evenodd"></path><path stroke="#000000" stroke-linecap="round" stroke-linejoin="round" stroke-miterlimit="1.5" d="M50.93 34.7122C49.4818 33.7947 48.0678 33.2393 46.3685 32.9311C34.444 30.7672 27.1618 46.9615 35.0407 55.2592C36.2893 56.5738 37.8621 57.6607 39.5029 58.4307C47.7749 62.3163 57.3684 55.4825 57.8101 46.5888C57.9486 43.8085 56.8257 38.4473 50.93 34.7122Z" clip-rule="evenodd"></path></svg>