<svg xmlns="http://www.w3.org/2000/svg" fill="none" viewBox="0 0 276 276"><path fill="#000000" fill-rule="evenodd" d="M100.834 60.5201C38.9597 63.2965 34.729 68.0561 34.729 132.574C34.8612 189.028 39.6197 208.595 53.5017 208.595C54.295 208.595 59.5839 210.181 65.2689 212.032C93.694 221.551 230.134 211.371 235.819 199.208C240.314 189.689 242.694 111.95 239.256 90.2673C235.687 68.3205 226.829 61.4456 203.428 61.9745C183.332 62.5033 186.373 70.9647 206.733 70.9647C221.937 70.9647 222.069 71.3613 222.334 133.5C222.598 192.994 222.731 191.54 213.608 193.787C196.95 197.886 100.834 198.811 59.5841 199.472C55.7501 192.201 54.9563 194.581 51.1222 136.937C47.5526 81.6737 47.685 81.4092 86.4224 76.2531C113.525 72.6834 118.417 72.2868 147.9 71.4935C175.267 70.7003 179.63 70.1714 179.63 68.1883C179.498 62.1066 143.405 58.537 100.834 60.5201ZM204.618 82.8636C200.123 86.4332 189.81 97.4066 155.964 133.5C144.726 145.531 145.124 145.531 133.622 137.466C116.038 125.303 100.834 116.048 88.9349 105.339C72.0121 90.1351 61.3029 84.1857 57.601 87.8875C55.3534 90.1351 74.5233 105.868 100.04 131.649L111.146 142.887C110.749 143.283 88.009 160.867 77.8288 174.617C70.9539 183.872 78.226 185.59 84.3076 181.227C90.6537 176.468 101.23 164.701 116.831 148.572L122.384 150.819C131.242 154.389 148.296 152.009 154.246 146.456C158.476 142.49 162.311 141.168 162.311 143.548C162.311 145.266 189.943 172.502 199.726 180.963C205.279 185.723 221.673 191.011 207.791 174.881C197.61 163.247 177.515 143.019 170.244 137.995C168.525 136.805 167.335 135.615 167.6 135.351C186.77 122.923 206.6 101.902 213.475 89.7385C222.069 75.0632 206.866 81.1448 204.618 82.8636Z" clip-rule="evenodd"></path></svg>