<svg width="264" height="696" viewBox="0 0 264 696" fill="none" xmlns="http://www.w3.org/2000/svg">
<path d="M-321.308 312.153C-315.435 311.142 -310.062 308.712 -304.965 305.683C-289.807 296.671 -278.836 281.522 -274.588 264.406C-273.809 266.966 -271.154 273.997 -270.171 276.057C-266.567 283.608 -262.579 290.754 -255.751 295.885C-226.859 317.6 -197.865 285.321 -191.343 259.044C-191.054 261.139 -187.053 274.769 -186.084 277.013C-181.06 288.64 -172.625 300.953 -159.943 304.899C-133.754 313.048 -114.508 289.095 -108.508 266.75C-108.508 266.75 -107.456 270.989 -106.768 273.059C-105.6 276.571 -104.263 280.007 -102.528 283.284C-97.4465 292.887 -89.7188 301.725 -79.3263 305.616C-54.9013 314.761 -27.275 295.498 -23.1918 271.023C-23.1918 271.023 -22.4497 274.392 -21.8127 275.987C-20.0327 280.445 -17.715 284.701 -15.0939 288.719C-8.93333 298.168 -0.600587 306.693 9.84438 311.291C31.0288 320.617 69.7648 303.534 68.5315 276.581C68.5242 276.58 70.1277 280.342 70.2487 280.558C71.7167 283.144 73.4514 285.596 75.192 288.002C79.4181 293.839 83.9635 299.355 89.4768 304.03C109.171 320.733 126.424 318.979 149.192 311.332" stroke="#555344" stroke-width="17.3855" stroke-miterlimit="1.5" stroke-linecap="round" stroke-linejoin="round"/>
<path d="M-324.787 368.187C-319.083 367.5 -313.656 365.343 -308.456 362.999C-293.746 356.367 -282.375 345.75 -272.036 333.674C-272.028 333.665 -268.195 339.972 -267.816 340.499C-264.147 345.594 -259.292 349.88 -253.843 352.997C-233.19 364.808 -206.664 356.621 -196.57 335.458C-196.57 337.469 -192.869 342.647 -192.082 343.546C-185.931 350.571 -178.462 357.207 -169.591 360.489C-148.165 368.417 -119.847 357.706 -109.175 337.354C-109.021 340.741 -105.394 346.249 -105.028 346.704C-99.2607 353.892 -90.9995 359.554 -81.9686 361.579C-60.4795 366.4 -37.247 355.741 -27.1081 336.164C-25.5505 341.045 -22.3922 346.027 -21.5088 347.013C-14.9196 354.367 -6.73126 360.312 2.72388 363.34C25.9914 370.791 57.8821 357.164 67.1459 340.76C66.7772 342.128 67.4914 345.013 67.6139 345.25C69.0308 347.953 70.9668 350.341 73.0776 352.532C78.7294 358.398 85.6392 363.078 92.8319 366.839C114.075 377.945 146.477 378.759 159.976 354.864" stroke="#555344" stroke-width="17.3855" stroke-miterlimit="1.5" stroke-linecap="round" stroke-linejoin="round"/>
<path d="M-327.687 433.743C-322.292 433.16 -316.882 435.266 -311.169 434.071C-291.065 429.864 -279.271 416.577 -267.769 401.387C-266.947 404.122 -265.173 406.328 -264.157 407.526C-258.924 413.704 -252.265 419.204 -244.639 422.148C-224.218 430.028 -207.477 417.63 -197.69 400.769C-197.69 400.769 -196.443 402.744 -195.701 403.644C-194.318 405.323 -192.862 406.947 -191.351 408.514C-185.739 414.335 -179.086 418.952 -171.33 421.44C-151.162 427.912 -125.907 418.542 -115.85 399.606C-115.766 400.274 -110.856 407.648 -110.363 408.245C-103.335 416.735 -94.9385 422.875 -84.4308 426.315C-60.981 433.995 -41.3083 419.296 -30.9115 399.074C-30.5289 401.749 -25.6008 407.686 -25.1008 408.256C-19.1283 415.063 -12.5654 421.162 -4.47329 425.384C16.0391 436.087 53.1205 434.004 60.2096 406.186C60.1265 406.17 62.0669 409.64 62.373 410.095C64.5101 413.271 67.0175 416.209 69.7436 418.897C76.4173 425.471 84.6726 430.492 93.3507 433.958C109.77 440.52 128.381 436.176 142.586 426.239C147.02 423.139 150.001 418.045 154.229 415.146" stroke="#555344" stroke-width="17.3855" stroke-miterlimit="1.5" stroke-linecap="round" stroke-linejoin="round"/>
</svg>
